<?xml version="1.0" encoding="UTF-8" standalone="no"?>
<!DOCTYPE svg PUBLIC "-//W3C//DTD SVG 1.1//EN" "http://www.w3.org/Graphics/SVG/1.1/DTD/svg11.dtd">
<svg width="100%" height="100%" viewBox="0 0 1519 1350" version="1.1" xmlns="http://www.w3.org/2000/svg" xmlns:xlink="http://www.w3.org/1999/xlink" xml:space="preserve" xmlns:serif="http://www.serif.com/" style="fill-rule:evenodd;clip-rule:evenodd;stroke-linecap:round;stroke-linejoin:round;stroke-miterlimit:1.5;">
    <g transform="matrix(1,0,0,1,-8265,-10730)">
        <g id="Prancheta4" transform="matrix(1,0,0,1,-0.306546,-0.333333)">
            <rect x="8265.31" y="10730.3" width="1518.36" height="1349.12" style="fill:none;"/>
            <clipPath id="_clip1">
                <rect x="8265.31" y="10730.3" width="1518.36" height="1349.12"/>
            </clipPath>
            <g clip-path="url(#_clip1)">
                <g transform="matrix(1,0,0,1,8551.47,5323.54)">
                    <g transform="matrix(0.665207,0,0,0.665207,-31.9835,1983.52)">
                        <g transform="matrix(1,0,0,1,-4374.53,1997.4)">
                            <path d="M4577.36,4201.69C4582.24,3898.32 4830.06,3653.52 5134.6,3653.52C5439.14,3653.52 5686.95,3898.32 5691.83,4201.69L4577.36,4201.69Z" style="fill:rgb(255,151,0);stroke:rgb(255,151,0);stroke-width:50.11px;"/>
                        </g>
                        <g transform="matrix(1.33307,1.06389,-1.06389,1.33307,-1054.77,-4713.96)">
                            <path d="M4438.66,4284.43L4181.69,4272.76C4170.25,4294.49 4169.52,4318.06 4181.69,4343.86L4431.03,4359.38C4432.31,4331.11 4431.55,4316.6 4438.66,4284.43Z" style="fill:rgb(255,151,0);stroke:rgb(255,151,0);stroke-width:29.38px;"/>
                        </g>
                        <g transform="matrix(-1.33307,1.06389,1.06389,1.33307,2574.01,-4713.96)">
                            <path d="M4438.66,4284.43L4181.69,4272.76C4170.25,4294.49 4169.52,4318.06 4181.69,4343.86L4431.03,4359.38C4432.31,4331.11 4431.55,4316.6 4438.66,4284.43Z" style="fill:rgb(255,151,0);stroke:rgb(255,151,0);stroke-width:29.38px;"/>
                        </g>
                        <g transform="matrix(1.05551e-16,1.70556,-1.70556,1.05551e-16,8104.8,-1942)">
                            <path d="M4392.6,4271.32L4181.69,4272.76C4167.23,4295.5 4167.39,4319.21 4181.69,4343.86L4392.93,4344.06C4391.35,4321.11 4390.32,4295.82 4392.6,4271.32Z" style="fill:rgb(255,151,0);stroke:rgb(255,151,0);stroke-width:29.38px;"/>
                        </g>
                        <g transform="matrix(1.97417,1.05551e-16,-1.22175e-16,1.70556,-8598.35,-1209.64)">
                            <path d="M4399.53,4271.59L4181.69,4272.76C4172.58,4295.71 4172.39,4319.39 4181.69,4343.86L4388.79,4343.86C4391.91,4312.87 4393.39,4292.96 4399.53,4271.59Z" style="fill:rgb(255,151,0);stroke:rgb(255,151,0);stroke-width:27.16px;"/>
                        </g>
                        <g transform="matrix(0.982236,0,0,0.982236,-2951.83,699.774)">
                            <path d="M3923.52,5670.84L4209.21,5670.84L3173.38,6566.63L3459.99,6021.95L3247.5,6021.95L3629.57,5319.73L4114.55,5319.73L3923.52,5670.84Z" style="fill:rgb(255,228,169);stroke:rgb(255,151,0);stroke-width:51.02px;"/>
                        </g>
                        <g>
                            <g transform="matrix(0.59117,0,0,0.59117,-2465,4177.45)">
                                <path d="M4251.85,3632.85C4248.02,3614.78 4213.16,3609.05 4200.02,3632.85L4138.49,3820.79C4129.35,3841.31 4130.88,3887.24 4141.82,3902.41C4193.43,3990.05 4287.51,3963.8 4314,3902.41C4321.42,3881.39 4323.76,3845.16 4316.11,3820.79L4251.85,3632.85Z" style="fill:rgb(130,181,255);"/>
                            </g>
                            <g transform="matrix(0.59117,0,0,0.59117,-2284.89,4321.31)">
                                <path d="M4251.85,3632.85C4248.02,3614.78 4213.16,3609.05 4200.02,3632.85L4138.49,3820.79C4129.35,3841.31 4130.88,3887.24 4141.82,3902.41C4193.43,3990.05 4287.51,3963.8 4314,3902.41C4321.42,3881.39 4323.76,3845.16 4316.11,3820.79L4251.85,3632.85Z" style="fill:rgb(130,181,255);"/>
                            </g>
                            <g transform="matrix(0.59117,0,0,0.59117,-2106.71,4177.45)">
                                <path d="M4251.85,3632.85C4248.02,3614.78 4213.16,3609.05 4200.02,3632.85L4138.49,3820.79C4129.35,3841.31 4130.88,3887.24 4141.82,3902.41C4193.43,3990.05 4287.51,3963.8 4314,3902.41C4321.42,3881.39 4323.76,3845.16 4316.11,3820.79L4251.85,3632.85Z" style="fill:rgb(130,181,255);"/>
                            </g>
                        </g>
                        <g transform="matrix(-1.97417,1.05551e-16,1.22175e-16,1.70556,10117.6,-1209.64)">
                            <path d="M4399.53,4271.59L4181.69,4272.76C4172.58,4295.71 4172.39,4319.39 4181.69,4343.86L4388.79,4343.86C4391.91,4312.87 4393.39,4292.96 4399.53,4271.59Z" style="fill:rgb(255,151,0);stroke:rgb(255,151,0);stroke-width:27.16px;"/>
                        </g>
                    </g>
                    <g transform="matrix(0.665207,0,0,0.665207,-31.9835,1983.52)">
                        <g transform="matrix(0.59117,0,0,0.59117,-1394.74,4177.45)">
                            <path d="M4251.85,3632.85C4248.02,3614.78 4213.16,3609.05 4200.02,3632.85L4138.49,3820.79C4129.35,3841.31 4130.88,3887.24 4141.82,3902.41C4193.43,3990.05 4287.51,3963.8 4314,3902.41C4321.42,3881.39 4323.76,3845.16 4316.11,3820.79L4251.85,3632.85Z" style="fill:rgb(130,181,255);"/>
                        </g>
                        <g transform="matrix(0.59117,0,0,0.59117,-1214.64,4321.31)">
                            <path d="M4251.85,3632.85C4248.02,3614.78 4213.16,3609.05 4200.02,3632.85L4138.49,3820.79C4129.35,3841.31 4130.88,3887.24 4141.82,3902.41C4193.43,3990.05 4287.51,3963.8 4314,3902.41C4321.42,3881.39 4323.76,3845.16 4316.11,3820.79L4251.85,3632.85Z" style="fill:rgb(130,181,255);"/>
                        </g>
                        <g transform="matrix(0.59117,0,0,0.59117,-1036.45,4177.45)">
                            <path d="M4251.85,3632.85C4248.02,3614.78 4213.16,3609.05 4200.02,3632.85L4138.49,3820.79C4129.35,3841.31 4130.88,3887.24 4141.82,3902.41C4193.43,3990.05 4287.51,3963.8 4314,3902.41C4321.42,3881.39 4323.76,3845.16 4316.11,3820.79L4251.85,3632.85Z" style="fill:rgb(130,181,255);"/>
                        </g>
                    </g>
                </g>
            </g>
        </g>
    </g>
</svg>
