<?xml version="1.0" encoding="UTF-8" standalone="no"?>
<!DOCTYPE svg PUBLIC "-//W3C//DTD SVG 1.1//EN" "http://www.w3.org/Graphics/SVG/1.1/DTD/svg11.dtd">
<svg width="100%" height="100%" viewBox="0 0 4667 1211" version="1.1" xmlns="http://www.w3.org/2000/svg" xmlns:xlink="http://www.w3.org/1999/xlink" xml:space="preserve" xmlns:serif="http://www.serif.com/" style="fill-rule:evenodd;clip-rule:evenodd;stroke-linejoin:round;stroke-miterlimit:2;">
    <g transform="matrix(1,0,0,1,0,-8310)">
        <g id="Prancheta2" transform="matrix(1,0,0,1,991.021,-0.191288)">
            <rect x="-991.021" y="8310.19" width="4666.51" height="1210.61" style="fill:none;"/>
            <clipPath id="_clip1">
                <rect x="-991.021" y="8310.19" width="4666.51" height="1210.61"/>
            </clipPath>
            <g clip-path="url(#_clip1)">
                <g transform="matrix(1,0,0,1,-67.348,5121.44)">
                    <g transform="matrix(1,0,0,1,-3526.61,-932.176)">
                        <path d="M3108.37,4589.92L2973.18,4604.72C2966.45,4545.53 2955.02,4505.96 2938.88,4486.01C2922.73,4466.05 2899.86,4456.07 2870.27,4456.07C2828.57,4456.07 2798.3,4475.24 2779.47,4513.58C2760.64,4551.92 2751.22,4619.29 2751.22,4715.7C2751.22,4866.36 2790.9,4941.69 2870.27,4941.69C2931.25,4941.69 2965.55,4892.59 2973.18,4794.39L3108.37,4806.5C3089.99,4973.75 3007.26,5057.38 2860.18,5057.38C2773.19,5057.38 2708.73,5025.99 2666.81,4963.22C2624.88,4900.44 2603.92,4813.68 2603.92,4702.92C2603.92,4586.34 2626.56,4497.55 2671.85,4436.57C2717.14,4375.59 2783.05,4345.1 2869.6,4345.1C3009.05,4345.1 3088.64,4426.7 3108.37,4589.92Z" style="fill:rgb(0,37,69);fill-rule:nonzero;"/>
                        <rect x="3201.19" y="4122.46" width="139.901" height="918.102" style="fill:rgb(0,37,69);fill-rule:nonzero;"/>
                        <path d="M3649.82,4269.76L3502.51,4269.76L3502.51,4121.12L3649.82,4121.12L3649.82,4269.76ZM3505.88,4361.24L3645.78,4361.24L3645.78,5040.57L3505.88,5040.57L3505.88,4361.24Z" style="fill:rgb(0,37,69);fill-rule:nonzero;"/>
                        <path d="M3811.24,4361.24L3940.38,4361.24L3940.38,4464.82C3973.53,4385 4029.3,4345.1 4107.69,4345.1C4193.7,4345.1 4245.44,4387.24 4262.9,4471.55C4294.71,4387.24 4352.05,4345.1 4434.92,4345.1C4476.13,4345.1 4510.51,4354.06 4538.06,4372C4565.61,4389.94 4584.76,4413.7 4595.51,4443.3C4606.26,4472.89 4611.64,4528.72 4611.64,4610.77L4611.64,5040.57L4471.73,5040.57L4471.73,4622.69C4471.73,4558.64 4466.22,4515.19 4455.2,4492.35C4444.17,4469.51 4422.01,4458.09 4388.71,4458.09C4317.61,4458.09 4282.06,4519.68 4282.06,4642.85L4282.06,5040.57L4142.16,5040.57L4142.16,4627.39C4142.16,4568.72 4139.81,4530.76 4135.1,4513.52C4130.39,4496.28 4121.65,4482.73 4108.87,4472.87C4096.09,4463.02 4079.61,4458.09 4059.43,4458.09C4020.42,4458.09 3992.62,4472.76 3976.03,4502.1C3959.44,4531.43 3951.14,4579.47 3951.14,4646.2L3951.14,5040.57L3811.24,5040.57L3811.24,4361.24Z" style="fill:rgb(0,37,69);fill-rule:nonzero;"/>
                        <path d="M4899.51,4553.6L4764.32,4536.79C4773.27,4476.25 4801.15,4429.17 4847.94,4395.54C4894.73,4361.91 4952.16,4345.1 5020.22,4345.1C5081.12,4345.1 5129.82,4357.31 5166.31,4381.75C5202.81,4406.19 5225.76,4435.22 5235.16,4468.85C5244.56,4502.48 5249.26,4553.38 5249.26,4621.53L5249.26,4852.91C5249.26,4946.63 5253.3,5009.18 5261.37,5040.57L5128.87,5040.57C5123.04,5015.9 5120.12,4978.24 5120.12,4927.57C5077.6,5014.11 5014.04,5057.38 4929.44,5057.38C4872.15,5057.38 4826.16,5039.78 4791.47,5004.58C4756.78,4969.38 4739.43,4921.52 4739.43,4860.98C4739.43,4786.99 4764.83,4728.48 4815.64,4685.43C4866.44,4642.39 4954.5,4620.86 5079.82,4620.86C5086.08,4620.86 5095.93,4621.09 5109.36,4621.53L5109.36,4593.96C5109.36,4545.53 5102.1,4508.99 5087.57,4484.32C5073.04,4459.66 5047.01,4447.33 5009.46,4447.33C4948.23,4447.33 4911.57,4482.76 4899.51,4553.6ZM5109.36,4709.65C5091.48,4707.85 5077.85,4706.95 5068.46,4706.95C4946.86,4706.95 4886.06,4754.71 4886.06,4850.22C4886.06,4919.72 4916.23,4954.47 4976.59,4954.47C5011.9,4954.47 5042.86,4935.64 5069.46,4897.97C5096.06,4860.31 5109.36,4808.52 5109.36,4742.6L5109.36,4709.65Z" style="fill:rgb(0,37,69);fill-rule:nonzero;"/>
                        <path d="M5584.37,4122.46L5754.73,4122.46L6001.23,5040.57L5847.33,5040.57L5789.74,4810.54L5520.54,4810.54L5463.49,5040.57L5318.54,5040.57L5584.37,4122.46ZM5759.78,4690.81L5654.51,4270.44L5550.22,4690.81L5759.78,4690.81Z" style="fill:white;fill-rule:nonzero;"/>
                        <path d="M6744.46,4361.24L6873.6,4361.24L6873.6,4472.89C6908.96,4390.83 6964.91,4349.8 7041.46,4349.8C7109.95,4349.8 7165.23,4379.73 7207.31,4439.6C7249.39,4499.46 7270.43,4584.77 7270.43,4695.52C7270.43,4794.62 7251.33,4878.92 7213.12,4948.42C7174.92,5017.92 7115.6,5052.67 7035.17,5052.67C6970.82,5052.67 6920.55,5025.1 6884.36,4969.94L6880.62,5331.73L6740.72,5331.73L6744.46,4361.24ZM6884.36,4756.32C6884.36,4799.75 6887.59,4833.67 6894.06,4858.07C6900.53,4882.48 6913.79,4903.3 6933.85,4920.54C6953.92,4937.78 6976.65,4946.4 7002.06,4946.4C7081.43,4946.4 7121.11,4862.67 7121.11,4695.19C7121.11,4533.09 7082.32,4452.04 7004.74,4452.04C6970.41,4452.04 6941.77,4468.61 6918.8,4501.74C6895.84,4534.88 6884.36,4582.12 6884.36,4643.47L6884.36,4756.32Z" style="fill:white;fill-rule:nonzero;"/>
                    </g>
                    <g transform="matrix(1,0,0,1,-2412,1534.59)">
                        <path d="M4969.51,2725.77L4972.71,1894.47L5101.85,1894.47L5101.85,2006.12C5137.21,1924.06 5193.17,1883.04 5269.72,1883.04C5338.2,1883.04 5393.49,1912.97 5435.57,1972.83C5477.65,2032.69 5498.69,2118 5498.69,2228.75C5498.69,2327.85 5479.58,2412.15 5441.38,2481.65C5403.17,2551.15 5343.86,2585.91 5263.42,2585.91C5199.08,2585.91 5148.81,2558.33 5112.61,2503.18L5108.87,2864.96L4968.97,2864.96L4968.97,2864.76L1494.73,2864.76L1494.73,2725.77L4969.51,2725.77ZM5112.61,2289.55C5112.61,2332.98 5115.85,2366.9 5122.31,2391.31C5128.78,2415.71 5142.05,2436.54 5162.11,2453.78C5182.17,2471.01 5204.91,2479.63 5230.32,2479.63C5309.69,2479.63 5349.37,2395.9 5349.37,2228.43C5349.37,2066.32 5310.58,1985.27 5233,1985.27C5198.67,1985.27 5170.02,2001.84 5147.06,2034.98C5124.1,2068.11 5112.61,2115.35 5112.61,2176.7L5112.61,2289.55Z" style="fill:white;fill-rule:nonzero;"/>
                    </g>
                </g>
            </g>
        </g>
    </g>
</svg>
